<svg width="570" height="440" viewBox="0 0 570 440" fill="none" xmlns="http://www.w3.org/2000/svg">
<mask id="mask0_643_10784" style="mask-type:alpha" maskUnits="userSpaceOnUse" x="0" y="0" width="570" height="440">
<rect width="570" height="440" fill="#D9D9D9"/>
</mask>
<g mask="url(#mask0_643_10784)">
<g opacity="0.1" filter="url(#filter0_f_643_10784)">
<ellipse cx="284.635" cy="285.698" rx="226.1" ry="97.5133" fill="url(#paint0_linear_643_10784)"/>
</g>
<path d="M560.455 285.698C560.455 301.984 552.804 317.54 538.883 331.735C524.96 345.931 504.789 358.739 479.824 369.506C429.897 391.039 360.887 404.37 284.635 404.37C208.383 404.37 139.373 391.039 89.4456 369.506C64.4808 358.739 44.3097 345.931 30.387 331.735C16.4664 317.54 8.81543 301.984 8.81543 285.698C8.81543 269.411 16.4664 253.855 30.387 239.661C44.3097 225.464 64.4808 212.656 89.4456 201.889C139.373 180.356 208.383 167.025 284.635 167.025C360.887 167.025 429.897 180.356 479.824 201.889C504.789 212.656 524.96 225.464 538.883 239.661C552.804 253.855 560.455 269.411 560.455 285.698Z" stroke="url(#paint1_linear_643_10784)"/>
<path d="M510.235 285.698C510.235 298.994 503.989 311.701 492.61 323.304C481.229 334.91 464.735 345.384 444.314 354.191C403.474 371.805 347.019 382.711 284.635 382.711C222.251 382.711 165.796 371.805 124.956 354.191C104.536 345.384 88.0417 334.91 76.6602 323.304C65.2809 311.701 59.0352 298.994 59.0352 285.698C59.0352 272.402 65.2809 259.695 76.6602 248.091C88.0417 236.486 104.536 226.012 124.956 217.205C165.796 199.591 222.251 188.685 284.635 188.685C347.019 188.685 403.474 199.591 444.314 217.205C464.735 226.012 481.229 236.486 492.61 248.091C503.989 259.695 510.235 272.402 510.235 285.698Z" stroke="url(#paint2_linear_643_10784)"/>
<g opacity="0.6">
<rect x="143.933" y="78.3311" width="16" height="167.052" fill="url(#paint3_linear_643_10784)"/>
<path d="M128.933 78.3311H144.933V245.383L128.933 245.124V78.3311Z" fill="url(#paint4_linear_643_10784)"/>
<rect width="17.8975" height="17.8975" transform="matrix(0.866044 -0.499967 0.866044 0.499967 128.933 78.3311)" fill="url(#paint5_linear_643_10784)"/>
</g>
<rect x="0.866044" width="200.251" height="200.251" transform="matrix(0.866044 -0.499967 0.866044 0.499967 108.348 264.755)" stroke="url(#paint6_linear_643_10784)"/>
<path d="M470.932 275.464L307.975 374.426" stroke="url(#paint7_linear_643_10784)"/>
<path d="M94.3343 275.576L257.107 374.426" stroke="url(#paint8_linear_643_10784)" stroke-dasharray="6 6"/>
<rect x="0.866044" width="114.925" height="114.925" transform="matrix(0.866044 -0.499967 0.866044 0.499967 182.245 267.212)" fill="url(#paint9_linear_643_10784)" fill-opacity="0.5" stroke="url(#paint10_linear_643_10784)"/>
<rect width="21.6844" height="21.6844" transform="matrix(0.866044 -0.499967 0.866044 0.499967 263.746 383.361)" stroke="#38A1DB" stroke-linejoin="bevel"/>
<rect width="21.6844" height="21.6844" transform="matrix(0.866007 0.500033 3.76274e-05 1 263.745 383.359)" stroke="#38A1DB" stroke-linejoin="bevel"/>
<rect width="21.6844" height="21.6844" transform="matrix(-0.866007 0.500033 -3.76274e-05 1 301.306 383.361)" stroke="#38A1DB" stroke-linejoin="bevel"/>
<rect x="0.866044" width="115.269" height="115.269" transform="matrix(0.866044 -0.499967 0.866044 0.499967 181.947 240.482)" stroke="url(#paint11_linear_643_10784)"/>
<rect opacity="0.6" width="68.5403" height="68.5403" transform="matrix(0.866044 -0.499967 0.866044 0.499967 223.395 221.968)" fill="url(#paint12_linear_643_10784)"/>
<path fill-rule="evenodd" clip-rule="evenodd" d="M282.158 120.379L225.128 153.302L282.161 186.227L282.158 120.379ZM282.728 120.05L282.77 120.074L282.797 120.058L282.755 120.034L282.728 120.05ZM282.161 187.227L282.161 188.261L282.161 188.464L224.3 221.873L224.023 221.713L224.023 153.664L224.262 153.802L281.889 187.07L282.161 187.227ZM283.378 189.464L340.322 222.343L283.378 255.222V189.464ZM341.188 221.843L283.379 188.464L283.379 188.261L283.379 187.21L283.621 187.07L341.248 153.802L341.517 153.647L341.517 221.653L341.188 221.843ZM342.383 222.153L342.384 222.153L342.384 221.653L342.386 153.112L342.086 153.286L341.248 152.802L283.621 119.534L282.755 119.034L281.889 119.534L224.262 152.802L223.396 153.302L223.499 153.362L223.49 153.367L223.153 153.173L223.156 221.713L223.156 222.213L223.157 222.213L223.157 223.033L223.157 223.533L223.59 223.283L224.3 222.873L282.161 256.283V256.425V256.925L282.594 256.675L282.718 256.604L282.945 256.735L283.378 256.985V256.485V256.222L341.188 222.843L341.95 223.283L342.383 223.533L342.383 223.033V222.153ZM282.162 189.464L225.166 222.373L282.161 255.283L282.162 189.464ZM283.382 120.396L283.379 186.21L340.382 153.302L283.382 120.396Z" fill="white"/>
<rect width="36.1678" height="36.1678" transform="matrix(0.866044 -0.499967 0.866044 0.499967 251.501 220.276)" fill="url(#paint13_linear_643_10784)"/>
<path d="M282.849 238.346L282.888 241.566L314.211 223.464L314.149 220.273L282.849 238.346Z" fill="url(#paint14_linear_643_10784)"/>
<path d="M282.825 238.359V241.569L251.502 223.468V220.276L282.825 238.359Z" fill="url(#paint15_linear_643_10784)"/>
<mask id="mask1_643_10784" style="mask-type:alpha" maskUnits="userSpaceOnUse" x="250" y="152" width="67" height="67">
<circle cx="283.202" cy="185.281" r="32.8542" fill="url(#paint16_radial_643_10784)"/>
</mask>
<g mask="url(#mask1_643_10784)">
<circle cx="283.202" cy="185.281" r="32.8542" fill="url(#paint17_linear_643_10784)"/>
<g filter="url(#filter1_f_643_10784)">
<path fill-rule="evenodd" clip-rule="evenodd" d="M280.426 214.433C298.571 214.433 313.28 199.724 313.28 181.579C313.28 175.021 311.358 168.911 308.047 163.782C313.037 169.544 316.056 177.06 316.056 185.28C316.056 203.425 301.347 218.135 283.202 218.135C271.616 218.135 261.431 212.137 255.581 203.077C261.605 210.033 270.502 214.433 280.426 214.433Z" fill="#043F4B"/>
</g>
<g filter="url(#filter2_f_643_10784)">
<path fill-rule="evenodd" clip-rule="evenodd" d="M307.78 163.479C301.98 158.33 294.344 155.203 285.978 155.203C267.833 155.203 253.124 169.912 253.124 188.057C253.124 196.423 256.251 204.059 261.4 209.859C254.62 203.841 250.348 195.06 250.348 185.281C250.348 167.136 265.057 152.427 283.202 152.427C292.981 152.427 301.762 156.699 307.78 163.479Z" fill="#63EEFF"/>
</g>
</g>
<path opacity="0.5" d="M235.933 159.998H329.933L314.157 220.274L282.835 238.36L251.504 220.278L235.933 159.998Z" fill="url(#paint18_linear_643_10784)"/>
<path opacity="0.4" d="M283.359 255.678L283.359 186.274L224 152.866L224.003 221.406L283.359 255.678Z" fill="url(#paint19_linear_643_10784)"/>
<path opacity="0.4" d="M283.008 255.748L283.008 186.274L342.367 152.935L342.365 221.475L283.008 255.748Z" fill="url(#paint20_linear_643_10784)"/>
<path fill-rule="evenodd" clip-rule="evenodd" d="M284.803 121.217C284.257 121.744 283.514 122.068 282.695 122.068C281.899 122.068 281.174 121.761 280.632 121.259L226.856 152.304C226.993 152.65 227.068 153.027 227.068 153.422C227.068 153.742 227.019 154.051 226.927 154.34L280.188 185.088C280.735 184.289 281.654 183.764 282.695 183.764C283.758 183.764 284.693 184.31 285.235 185.138L338.817 154.205C338.858 153.65 339.049 153.137 339.348 152.706L284.803 121.217ZM280.082 120.577C279.815 120.125 279.661 119.597 279.661 119.034C279.661 117.358 281.02 116 282.695 116C284.371 116 285.73 117.358 285.73 119.034C285.73 119.576 285.587 120.085 285.338 120.526L339.957 152.057C340.475 151.645 341.13 151.399 341.843 151.399C343.519 151.399 344.877 152.758 344.877 154.434C344.877 155.924 343.803 157.163 342.386 157.419L342.384 219.211C343.801 219.466 344.877 220.706 344.877 222.197C344.877 223.873 343.519 225.231 341.843 225.231C340.803 225.231 339.885 224.708 339.338 223.911L285.656 254.907C285.704 255.121 285.73 255.344 285.73 255.573C285.73 257.249 284.371 258.607 282.695 258.607C281.02 258.607 279.661 257.249 279.661 255.573C279.661 255.336 279.688 255.106 279.74 254.884L226.406 224.089C225.85 224.785 224.994 225.231 224.034 225.231C222.358 225.231 221 223.873 221 222.197C221 220.827 221.908 219.669 223.155 219.292L223.153 156.326C221.907 155.949 221 154.791 221 153.422C221 151.746 222.358 150.388 224.034 150.388C225.005 150.388 225.869 150.844 226.425 151.553L280.082 120.577ZM226.548 155.122C226.002 155.927 225.08 156.456 224.034 156.456C224.029 156.456 224.024 156.456 224.019 156.456L224.021 219.163C224.026 219.163 224.03 219.163 224.034 219.163C225.71 219.163 227.068 220.521 227.068 222.197C227.068 222.602 226.989 222.989 226.845 223.343L280.06 254.069C280.498 253.303 281.261 252.746 282.161 252.586L282.161 189.785C280.74 189.533 279.661 188.292 279.661 186.798C279.661 186.474 279.712 186.161 279.806 185.868L226.548 155.122ZM283.378 189.755V252.616C284.221 252.81 284.929 253.355 285.342 254.088L338.955 223.132C338.86 222.837 338.809 222.523 338.809 222.197C338.809 220.631 339.995 219.343 341.518 219.18L341.52 157.451C340.239 157.315 339.196 156.383 338.896 155.159L285.602 185.926C285.685 186.202 285.73 186.495 285.73 186.798C285.73 188.239 284.725 189.445 283.378 189.755Z" fill="white"/>
<mask id="path-29-inside-1_643_10784" fill="white">
<path fill-rule="evenodd" clip-rule="evenodd" d="M289.513 22.6523L336.712 69.21L336.622 92.9239H328.621L304.836 69.21L289.303 46.2335L242.149 92.7322H234.154L234.5 80.6523L242 69.5197L281.5 22.6523H289.513ZM304.982 93.2013H312.993L324.804 104.852L289.162 140.01H281.199L253.744 105.073L281.386 69.915H289.386L301.212 81.5803L277.531 104.955L289.312 116.576L304.982 93.2013Z"/>
</mask>
<path fill-rule="evenodd" clip-rule="evenodd" d="M289.513 22.6523L336.712 69.21L336.622 92.9239H328.621L304.836 69.21L289.303 46.2335L242.149 92.7322H234.154L234.5 80.6523L242 69.5197L281.5 22.6523H289.513ZM304.982 93.2013H312.993L324.804 104.852L289.162 140.01H281.199L253.744 105.073L281.386 69.915H289.386L301.212 81.5803L277.531 104.955L289.312 116.576L304.982 93.2013Z" fill="url(#paint21_linear_643_10784)" fill-opacity="0.42"/>
<path d="M336.712 69.21L337.711 69.2138L337.713 68.7934L337.414 68.4981L336.712 69.21ZM289.513 22.6523L290.215 21.9404L289.923 21.6523H289.513V22.6523ZM336.622 92.9239V93.9239H337.618L337.622 92.9277L336.622 92.9239ZM328.621 92.9239L327.915 93.6321L328.207 93.9239H328.621V92.9239ZM304.836 69.21L304.008 69.7701L304.062 69.8501L304.13 69.9182L304.836 69.21ZM289.303 46.2335L290.132 45.6734L289.458 44.6767L288.601 45.5215L289.303 46.2335ZM242.149 92.7322V93.7322H242.559L242.851 93.4443L242.149 92.7322ZM234.154 92.7322L233.155 92.7037L233.125 93.7322H234.154V92.7322ZM234.5 80.6523L233.67 80.0936L233.508 80.334L233.5 80.6238L234.5 80.6523ZM242 69.5197L241.235 68.8753L241.2 68.9164L241.17 68.961L242 69.5197ZM281.5 22.6523V21.6523H281.035L280.735 22.0079L281.5 22.6523ZM312.993 93.2013L313.696 92.4893L313.404 92.2013H312.993V93.2013ZM304.982 93.2013V92.2013H304.448L304.151 92.6444L304.982 93.2013ZM324.804 104.852L325.507 105.564L326.228 104.852L325.507 104.14L324.804 104.852ZM289.162 140.01V141.01H289.572L289.864 140.722L289.162 140.01ZM281.199 140.01L280.413 140.628L280.713 141.01H281.199V140.01ZM253.744 105.073L252.958 104.455L252.472 105.073L252.958 105.691L253.744 105.073ZM281.386 69.915V68.915H280.9L280.6 69.297L281.386 69.915ZM289.386 69.915L290.089 69.2031L289.797 68.915H289.386V69.915ZM301.212 81.5803L301.915 82.292L302.636 81.58L301.915 80.8683L301.212 81.5803ZM277.531 104.955L276.828 104.243L276.107 104.955L276.828 105.667L277.531 104.955ZM289.312 116.576L288.609 117.288L289.469 118.136L290.142 117.133L289.312 116.576ZM337.414 68.4981L290.215 21.9404L288.81 23.3643L336.009 69.922L337.414 68.4981ZM337.622 92.9277L337.711 69.2138L335.712 69.2063L335.622 92.9202L337.622 92.9277ZM328.621 93.9239H336.622V91.9239H328.621V93.9239ZM304.13 69.9182L327.915 93.6321L329.327 92.2158L305.542 68.5019L304.13 69.9182ZM288.475 46.7936L304.008 69.7701L305.665 68.65L290.132 45.6734L288.475 46.7936ZM242.851 93.4443L290.005 46.9456L288.601 45.5215L241.447 92.0202L242.851 93.4443ZM234.154 93.7322H242.149V91.7322H234.154V93.7322ZM233.5 80.6238L233.155 92.7037L235.154 92.7608L235.499 80.6809L233.5 80.6238ZM241.17 68.961L233.67 80.0936L235.329 81.2111L242.829 70.0785L241.17 68.961ZM280.735 22.0079L241.235 68.8753L242.764 70.1642L282.264 23.2968L280.735 22.0079ZM289.513 21.6523H281.5V23.6523H289.513V21.6523ZM312.993 92.2013H304.982V94.2013H312.993V92.2013ZM325.507 104.14L313.696 92.4893L312.291 93.9132L324.102 105.564L325.507 104.14ZM289.864 140.722L325.507 105.564L324.102 104.14L288.46 139.298L289.864 140.722ZM281.199 141.01H289.162V139.01H281.199V141.01ZM252.958 105.691L280.413 140.628L281.985 139.392L254.53 104.455L252.958 105.691ZM280.6 69.297L252.958 104.455L254.53 105.691L282.172 70.5331L280.6 69.297ZM289.386 68.915H281.386V70.915H289.386V68.915ZM301.915 80.8683L290.089 69.2031L288.684 70.627L300.51 82.2922L301.915 80.8683ZM278.233 105.667L301.915 82.292L300.51 80.8686L276.828 104.243L278.233 105.667ZM290.014 115.864L278.233 104.243L276.828 105.667L288.609 117.288L290.014 115.864ZM304.151 92.6444L288.481 116.019L290.142 117.133L305.812 93.7581L304.151 92.6444Z" fill="url(#paint22_linear_643_10784)" mask="url(#path-29-inside-1_643_10784)"/>
<mask id="path-31-inside-2_643_10784" fill="white">
<path fill-rule="evenodd" clip-rule="evenodd" d="M281.513 22.6523L328.712 69.21L328.622 92.9239L281.304 46.2335L234.15 92.7322L234 69.5197L281.513 22.6523ZM281.312 116.576L304.994 93.2012L316.805 104.852L281.163 140.01L245.745 105.073L281.387 69.915L293.213 81.5802L269.531 104.955L281.312 116.576Z"/>
</mask>
<path fill-rule="evenodd" clip-rule="evenodd" d="M281.513 22.6523L328.712 69.21L328.622 92.9239L281.304 46.2335L234.15 92.7322L234 69.5197L281.513 22.6523ZM281.312 116.576L304.994 93.2012L316.805 104.852L281.163 140.01L245.745 105.073L281.387 69.915L293.213 81.5802L269.531 104.955L281.312 116.576Z" fill="url(#paint23_linear_643_10784)"/>
<path d="M328.712 69.21L329.712 69.2138L329.714 68.7934L329.414 68.4981L328.712 69.21ZM281.513 22.6523L282.215 21.9404L281.513 21.2477L280.811 21.9404L281.513 22.6523ZM328.622 92.9239L327.92 93.6358L329.613 95.3066L329.622 92.9277L328.622 92.9239ZM281.304 46.2335L282.006 45.5217L281.304 44.8289L280.601 45.5215L281.304 46.2335ZM234.15 92.7322L233.15 92.7387L233.165 95.1077L234.852 93.4443L234.15 92.7322ZM234 69.5197L233.298 68.8078L232.997 69.1042L233 69.5262L234 69.5197ZM304.994 93.2012L305.696 92.4893L304.994 91.7964L304.292 92.4895L304.994 93.2012ZM281.312 116.576L280.61 117.288L281.313 117.981L282.015 117.288L281.312 116.576ZM316.805 104.852L317.507 105.564L318.229 104.852L317.507 104.14L316.805 104.852ZM281.163 140.01L280.461 140.722L281.163 141.414L281.865 140.722L281.163 140.01ZM245.745 105.073L245.043 104.361L244.321 105.073L245.043 105.785L245.745 105.073ZM281.387 69.915L282.089 69.2031L281.387 68.5104L280.685 69.2031L281.387 69.915ZM293.213 81.5802L293.916 82.2919L294.637 81.58L293.915 80.8683L293.213 81.5802ZM269.531 104.955L268.829 104.243L268.108 104.955L268.829 105.667L269.531 104.955ZM329.414 68.4981L282.215 21.9404L280.811 23.3643L328.01 69.922L329.414 68.4981ZM329.622 92.9277L329.712 69.2138L327.712 69.2063L327.622 92.9202L329.622 92.9277ZM280.601 46.9453L327.92 93.6358L329.325 92.2121L282.006 45.5217L280.601 46.9453ZM234.852 93.4443L282.006 46.9456L280.601 45.5215L233.447 92.0202L234.852 93.4443ZM233 69.5262L233.15 92.7387L235.149 92.7258L235 69.5133L233 69.5262ZM280.811 21.9404L233.298 68.8078L234.702 70.2317L282.215 23.3643L280.811 21.9404ZM304.292 92.4895L280.61 115.864L282.015 117.288L305.697 93.9129L304.292 92.4895ZM317.507 104.14L305.696 92.4893L304.292 93.9132L316.103 105.564L317.507 104.14ZM281.865 140.722L317.507 105.564L316.103 104.14L280.461 139.298L281.865 140.722ZM245.043 105.785L280.461 140.722L281.865 139.298L246.447 104.361L245.043 105.785ZM280.685 69.2031L245.043 104.361L246.447 105.785L282.089 70.6269L280.685 69.2031ZM293.915 80.8683L282.089 69.2031L280.685 70.6269L292.511 82.2922L293.915 80.8683ZM270.234 105.667L293.916 82.2919L292.511 80.8685L268.829 104.243L270.234 105.667ZM282.015 115.864L270.234 104.243L268.829 105.667L280.61 117.288L282.015 115.864Z" fill="url(#paint24_linear_643_10784)" mask="url(#path-31-inside-2_643_10784)"/>
<rect x="443.276" y="159.383" width="32" height="159" fill="url(#paint25_linear_643_10784)"/>
<path d="M412.276 159.637L443.776 159.883L443.776 318.383L412.276 318.137L412.276 159.637Z" fill="url(#paint26_linear_643_10784)"/>
<rect width="36.4824" height="36.4824" transform="matrix(0.866044 -0.499967 0.866044 0.499967 412.276 159.637)" fill="url(#paint27_linear_643_10784)"/>
<circle cx="444.776" cy="143.883" r="17.5" fill="url(#paint28_radial_643_10784)"/>
</g>
<defs>
<filter id="filter0_f_643_10784" x="-41.4648" y="88.1846" width="652.2" height="395.026" filterUnits="userSpaceOnUse" color-interpolation-filters="sRGB">
<feFlood flood-opacity="0" result="BackgroundImageFix"/>
<feBlend mode="normal" in="SourceGraphic" in2="BackgroundImageFix" result="shape"/>
<feGaussianBlur stdDeviation="50" result="effect1_foregroundBlur_643_10784"/>
</filter>
<filter id="filter1_f_643_10784" x="242.581" y="150.782" width="86.4756" height="80.3525" filterUnits="userSpaceOnUse" color-interpolation-filters="sRGB">
<feFlood flood-opacity="0" result="BackgroundImageFix"/>
<feBlend mode="normal" in="SourceGraphic" in2="BackgroundImageFix" result="shape"/>
<feGaussianBlur stdDeviation="6.5" result="effect1_foregroundBlur_643_10784"/>
</filter>
<filter id="filter2_f_643_10784" x="238.348" y="140.427" width="81.4326" height="81.4326" filterUnits="userSpaceOnUse" color-interpolation-filters="sRGB">
<feFlood flood-opacity="0" result="BackgroundImageFix"/>
<feBlend mode="normal" in="SourceGraphic" in2="BackgroundImageFix" result="shape"/>
<feGaussianBlur stdDeviation="6" result="effect1_foregroundBlur_643_10784"/>
</filter>
<linearGradient id="paint0_linear_643_10784" x1="442.903" y1="350.627" x2="12.2701" y2="350.627" gradientUnits="userSpaceOnUse">
<stop stop-color="#2989E3"/>
<stop offset="1" stop-color="#088587"/>
</linearGradient>
<linearGradient id="paint1_linear_643_10784" x1="284.635" y1="166.525" x2="284.635" y2="404.87" gradientUnits="userSpaceOnUse">
<stop stop-color="#062E36" stop-opacity="0"/>
<stop offset="0.635417" stop-color="#062E36"/>
<stop offset="1" stop-color="#062E36" stop-opacity="0"/>
</linearGradient>
<linearGradient id="paint2_linear_643_10784" x1="284.635" y1="219.465" x2="284.635" y2="383.211" gradientUnits="userSpaceOnUse">
<stop stop-color="#2B3540" stop-opacity="0"/>
<stop offset="0.635417" stop-color="#21597A"/>
<stop offset="1" stop-color="#2B3540" stop-opacity="0"/>
</linearGradient>
<linearGradient id="paint3_linear_643_10784" x1="151.933" y1="78.3311" x2="151.933" y2="245.383" gradientUnits="userSpaceOnUse">
<stop stop-color="#14314D"/>
<stop offset="1" stop-color="#041423" stop-opacity="0"/>
</linearGradient>
<linearGradient id="paint4_linear_643_10784" x1="136.933" y1="78.3311" x2="136.933" y2="245.383" gradientUnits="userSpaceOnUse">
<stop stop-color="#031C34"/>
<stop offset="1" stop-color="#041423" stop-opacity="0"/>
</linearGradient>
<linearGradient id="paint5_linear_643_10784" x1="15.047" y1="2.22995" x2="-0.0747478" y2="17.3517" gradientUnits="userSpaceOnUse">
<stop stop-color="#09233A"/>
<stop offset="1" stop-color="#092743"/>
</linearGradient>
<linearGradient id="paint6_linear_643_10784" x1="1.53686" y1="200.878" x2="201.029" y2="1.3853" gradientUnits="userSpaceOnUse">
<stop stop-color="#38A1DB"/>
<stop offset="1" stop-color="#38A1DB" stop-opacity="0"/>
</linearGradient>
<linearGradient id="paint7_linear_643_10784" x1="309.219" y1="374.242" x2="396.263" y2="230.909" gradientUnits="userSpaceOnUse">
<stop stop-color="#38A1DB"/>
<stop offset="1" stop-color="#38A1DB" stop-opacity="0"/>
</linearGradient>
<linearGradient id="paint8_linear_643_10784" x1="255.864" y1="374.243" x2="168.919" y2="231.072" gradientUnits="userSpaceOnUse">
<stop stop-color="#38A1DB"/>
<stop offset="1" stop-color="#38A1DB" stop-opacity="0"/>
</linearGradient>
<linearGradient id="paint9_linear_643_10784" x1="-3.95837e-05" y1="115.925" x2="110.69" y2="5.23452" gradientUnits="userSpaceOnUse">
<stop stop-color="#266199"/>
<stop offset="1" stop-color="#041423" stop-opacity="0"/>
</linearGradient>
<linearGradient id="paint10_linear_643_10784" x1="0.88526" y1="115.71" x2="115.797" y2="0.79796" gradientUnits="userSpaceOnUse">
<stop stop-color="#40B8FB"/>
<stop offset="1" stop-color="#38A1DB" stop-opacity="0"/>
<stop offset="1" stop-color="#40B8FB" stop-opacity="0.3"/>
</linearGradient>
<linearGradient id="paint11_linear_643_10784" x1="0.887888" y1="116.053" x2="116.141" y2="0.800328" gradientUnits="userSpaceOnUse">
<stop stop-color="#08C3D9"/>
<stop offset="1" stop-color="#376AEC" stop-opacity="0"/>
</linearGradient>
<linearGradient id="paint12_linear_643_10784" x1="1.62001" y1="1.62001" x2="67.1861" y2="67.1861" gradientUnits="userSpaceOnUse">
<stop stop-color="#1390BA"/>
<stop offset="1" stop-color="#0FA5C9" stop-opacity="0"/>
</linearGradient>
<linearGradient id="paint13_linear_643_10784" x1="36.3592" y1="35.8067" x2="0.0501894" y2="0.497943" gradientUnits="userSpaceOnUse">
<stop stop-color="#38A1DB"/>
<stop offset="1" stop-color="#51E2F5"/>
</linearGradient>
<linearGradient id="paint14_linear_643_10784" x1="314.211" y1="220.272" x2="282.887" y2="238.108" gradientUnits="userSpaceOnUse">
<stop stop-color="#44C0E8"/>
<stop offset="1" stop-color="#33BDEA"/>
</linearGradient>
<linearGradient id="paint15_linear_643_10784" x1="251.502" y1="220.276" x2="282.825" y2="238.112" gradientUnits="userSpaceOnUse">
<stop stop-color="#2DC8E3"/>
<stop offset="1" stop-color="#17A0C9"/>
</linearGradient>
<radialGradient id="paint16_radial_643_10784" cx="0" cy="0" r="1" gradientUnits="userSpaceOnUse" gradientTransform="translate(269.121 169.323) rotate(51.1466) scale(43.3935)">
<stop stop-color="#38A1DB"/>
<stop offset="1" stop-color="#06283A"/>
</radialGradient>
<linearGradient id="paint17_linear_643_10784" x1="277.62" y1="159.388" x2="303.938" y2="212.342" gradientUnits="userSpaceOnUse">
<stop stop-color="#2CDEF4"/>
<stop offset="1"/>
</linearGradient>
<linearGradient id="paint18_linear_643_10784" x1="283" y1="160" x2="283" y2="220" gradientUnits="userSpaceOnUse">
<stop stop-color="#49CEEE" stop-opacity="0"/>
<stop offset="0.567708" stop-color="#49CEEE"/>
</linearGradient>
<linearGradient id="paint19_linear_643_10784" x1="253.679" y1="169.137" x2="223.625" y2="221.188" gradientUnits="userSpaceOnUse">
<stop stop-color="#0289B4" stop-opacity="0.3"/>
<stop offset="1" stop-color="#0289B4"/>
</linearGradient>
<linearGradient id="paint20_linear_643_10784" x1="312.688" y1="169.137" x2="342.772" y2="221.24" gradientUnits="userSpaceOnUse">
<stop stop-color="#0289B4" stop-opacity="0.3"/>
<stop offset="1" stop-color="#0289B4"/>
</linearGradient>
<linearGradient id="paint21_linear_643_10784" x1="281.634" y1="22.6523" x2="296.339" y2="129.763" gradientUnits="userSpaceOnUse">
<stop stop-color="#0C4663"/>
<stop offset="1" stop-color="#009EB5"/>
</linearGradient>
<linearGradient id="paint22_linear_643_10784" x1="285.433" y1="22.6523" x2="285.433" y2="139.776" gradientUnits="userSpaceOnUse">
<stop stop-color="#1F3D58"/>
<stop offset="1" stop-color="#3FDBF5"/>
</linearGradient>
<linearGradient id="paint23_linear_643_10784" x1="281.356" y1="22.6523" x2="285.532" y2="136.27" gradientUnits="userSpaceOnUse">
<stop stop-color="#38A1DB"/>
<stop offset="1" stop-color="#24D9F0"/>
</linearGradient>
<linearGradient id="paint24_linear_643_10784" x1="281.356" y1="22.6523" x2="281.356" y2="139.776" gradientUnits="userSpaceOnUse">
<stop stop-color="#63CFFF" stop-opacity="0"/>
<stop offset="1" stop-color="#B2F6FF"/>
</linearGradient>
<linearGradient id="paint25_linear_643_10784" x1="459.276" y1="159.383" x2="459.276" y2="318.383" gradientUnits="userSpaceOnUse">
<stop stop-color="#031C34"/>
<stop offset="1" stop-color="#041423" stop-opacity="0"/>
</linearGradient>
<linearGradient id="paint26_linear_643_10784" x1="428.026" y1="159.637" x2="428.026" y2="318.383" gradientUnits="userSpaceOnUse">
<stop stop-color="#14314D"/>
<stop offset="1" stop-color="#041423" stop-opacity="0"/>
</linearGradient>
<linearGradient id="paint27_linear_643_10784" x1="30.672" y1="4.54556" x2="-0.152367" y2="35.37" gradientUnits="userSpaceOnUse">
<stop stop-color="#041423"/>
<stop offset="1" stop-color="#092743"/>
</linearGradient>
<radialGradient id="paint28_radial_643_10784" cx="0" cy="0" r="1" gradientUnits="userSpaceOnUse" gradientTransform="translate(437.276 135.383) rotate(51.1466) scale(23.1138)">
<stop stop-color="#36A7DE"/>
<stop offset="1" stop-color="#0C222D"/>
</radialGradient>
</defs>
</svg>
